<?xml version="1.0" encoding="UTF-8" standalone="no"?><!DOCTYPE svg PUBLIC "-//W3C//DTD SVG 1.1//EN" "http://www.w3.org/Graphics/SVG/1.1/DTD/svg11.dtd"><svg width="100%" height="100%" viewBox="0 0 2765 737" version="1.1" xmlns="http://www.w3.org/2000/svg" xmlns:xlink="http://www.w3.org/1999/xlink" xml:space="preserve" style="fill-rule:evenodd;clip-rule:evenodd;stroke-linejoin:round;stroke-miterlimit:1.5;"><circle cx="368.461" cy="368.461" r="368.461" style="fill:#bd3632;"/><circle cx="369.255" cy="366.357" r="264.347" style="fill:#474747;"/><circle cx="366.246" cy="370.213" r="227.574" style="fill:#bd3632;"/><circle cx="407.09" cy="366.357" r="81.718" style="fill:#424242;"/><path d="M407.09,51.219l0,635.263" style="fill:none;stroke:#c5c849;stroke-width:2.17px;"/><path d="M53.567,366.357l633.27,0" style="fill:none;stroke:#c5c849;stroke-width:2.17px;"/><path d="M971.793,89.51l0,523.244l-129.263,0l0,-280.528c0,-40.507 -0.96,-64.854 -2.88,-73.041c-1.919,-8.188 -7.199,-14.382 -15.838,-18.584c-8.638,-4.201 -27.889,-6.302 -57.752,-6.302l-12.798,0l0,-61.083c62.498,-13.574 109.959,-41.476 142.381,-83.706l76.15,0Z" style="fill:#424242;fill-rule:nonzero;"/><path d="M1326.95,266.618l0,174.522c0,39.645 -2.133,68.517 -6.399,86.615c-4.266,18.099 -13.118,35.012 -26.557,50.741c-13.438,15.729 -29.649,27.04 -48.633,33.935c-18.984,6.895 -40.208,10.342 -63.672,10.342c-30.929,0 -56.632,-3.609 -77.11,-10.827c-20.477,-7.218 -36.795,-18.476 -48.953,-33.773c-12.159,-15.298 -20.797,-31.403 -25.917,-48.317c-5.119,-16.914 -7.679,-43.792 -7.679,-80.636l0,-182.602c0,-48.048 4.106,-84.029 12.319,-107.945c8.212,-23.916 24.53,-43.092 48.953,-57.528c24.424,-14.436 54.02,-21.654 88.788,-21.654c28.37,0 53.753,5.01 76.15,15.029c22.397,10.018 39.142,22.246 50.234,36.682c11.092,14.435 18.611,30.703 22.557,48.801c3.946,18.099 5.919,46.97 5.919,86.615Zm-129.263,-43.954c0,-27.794 -1.333,-45.192 -3.999,-52.195c-2.667,-7.002 -8.906,-10.504 -18.718,-10.504c-9.599,0 -15.945,3.717 -19.037,11.15c-3.093,7.434 -4.64,24.617 -4.64,51.549l0,255.32c0,30.38 1.44,48.694 4.32,54.942c2.879,6.249 9.118,9.373 18.717,9.373c9.599,0 15.891,-3.663 18.878,-10.989c2.986,-7.325 4.479,-23.808 4.479,-49.448l0,-259.198Z" style="fill:#424242;fill-rule:nonzero;"/><path d="M1667.38,89.51l0,523.244l-129.263,0l0,-31.026c-12.372,12.927 -25.383,22.623 -39.035,29.087c-13.651,6.464 -27.943,9.696 -42.874,9.696c-20.051,0 -37.435,-5.333 -52.153,-15.998c-14.718,-10.665 -24.157,-23.001 -28.317,-37.005c-4.159,-14.005 -6.239,-36.844 -6.239,-68.517l0,-200.7c0,-32.966 2.08,-56.343 6.239,-70.133c4.16,-13.789 13.705,-25.909 28.637,-36.358c14.931,-10.45 32.742,-15.675 53.433,-15.675c15.998,0 30.662,2.909 43.994,8.726c13.331,5.817 25.436,14.544 36.315,26.178l0,-121.519l129.263,0Zm-129.263,202.317c0,-15.729 -1.333,-26.286 -3.999,-31.673c-2.667,-5.386 -7.946,-8.08 -15.838,-8.08c-7.679,0 -12.852,2.424 -15.518,7.272c-2.667,4.848 -4,15.675 -4,32.481l0,210.073c0,17.452 1.28,28.926 3.84,34.42c2.559,5.494 7.465,8.241 14.718,8.241c8.319,0 13.865,-3.07 16.638,-9.211c2.773,-6.14 4.159,-21.169 4.159,-45.085l0,-198.438Z" style="fill:#424242;fill-rule:nonzero;"/><path d="M1829.28,350.001l-121.264,0l0,-28.764c0,-33.181 3.786,-58.767 11.358,-76.757c7.572,-17.991 22.77,-33.882 45.594,-47.671c22.824,-13.789 52.473,-20.684 88.948,-20.684c43.728,0 76.684,7.81 98.867,23.431c22.184,15.621 35.516,34.797 39.995,57.528c4.479,22.731 6.719,69.54 6.719,140.426l0,215.244l-125.743,0l0,-38.136c-7.893,15.297 -18.078,26.771 -30.556,34.419c-12.479,7.649 -27.357,11.474 -44.634,11.474c-22.611,0 -43.355,-6.41 -62.232,-19.23c-18.878,-12.82 -28.316,-40.884 -28.316,-84.191l0,-35.228c0,-32.103 5.012,-53.972 15.038,-65.607c10.025,-11.635 34.875,-25.209 74.55,-40.722c42.447,-16.806 65.164,-28.118 68.151,-33.935c2.986,-5.817 4.479,-17.668 4.479,-35.551c0,-22.408 -1.653,-37.005 -4.959,-43.792c-3.306,-6.787 -8.799,-10.181 -16.478,-10.181c-8.746,0 -14.185,2.855 -16.318,8.565c-2.133,5.71 -3.199,20.523 -3.199,44.439l0,44.923Zm40.954,58.82c-20.69,15.298 -32.689,28.118 -35.995,38.46c-3.306,10.342 -4.959,25.209 -4.959,44.6c0,22.193 1.439,36.521 4.319,42.984c2.88,6.464 8.586,9.696 17.118,9.696c8.105,0 13.385,-2.532 15.838,-7.595c2.453,-5.063 3.679,-18.368 3.679,-39.914l0,-88.231Z" style="fill:#424242;fill-rule:nonzero;"/><path d="M2173.23,183.881l-5.119,56.235c18.771,-40.291 45.967,-61.621 81.589,-63.991l0,150.929c-23.677,0 -41.061,3.232 -52.153,9.696c-11.092,6.464 -17.918,15.459 -20.477,26.986c-2.56,11.528 -3.84,38.083 -3.84,79.667l0,169.351l-129.263,0l0,-428.873l129.263,0Z" style="fill:#424242;fill-rule:nonzero;"/><path d="M2414.8,126.677l0,67.547l34.876,0l0,67.869l-34.876,0l0,229.465c0,28.225 1.44,43.954 4.32,47.186c2.879,3.232 14.878,4.848 35.995,4.848l0,69.162l-52.153,0c-29.436,0 -50.447,-1.239 -63.032,-3.717c-12.585,-2.477 -23.677,-8.187 -33.275,-17.129c-9.599,-8.941 -15.572,-19.176 -17.918,-30.703c-2.346,-11.527 -3.52,-38.621 -3.52,-81.282l0,-217.83l-27.836,0l0,-67.869l27.836,0l0,-67.547l129.583,0Z" style="fill:#424242;fill-rule:nonzero;"/><path d="M2742.12,320.914l-114.545,0l0,-23.27c0,-19.822 -1.12,-32.373 -3.359,-37.651c-2.24,-5.279 -7.839,-7.919 -16.798,-7.919c-7.253,0 -12.692,2.424 -16.318,7.272c-3.626,4.848 -5.439,12.12 -5.439,21.816c0,13.143 0.906,22.784 2.719,28.925c1.813,6.141 7.253,12.874 16.318,20.199c9.066,7.326 27.676,17.991 55.833,31.996c37.541,18.53 62.178,35.982 73.91,52.357c11.732,16.375 17.598,40.183 17.598,71.425c0,34.904 -4.48,61.244 -13.439,79.02c-8.958,17.775 -23.943,31.457 -44.954,41.045c-21.01,9.588 -46.34,14.382 -75.99,14.382c-32.849,0 -60.952,-5.171 -84.308,-15.513c-23.357,-10.343 -39.409,-24.347 -48.154,-42.015c-8.746,-17.668 -13.118,-44.385 -13.118,-80.151l0,-20.684l114.545,0l0,27.148c0,23.054 1.439,38.028 4.319,44.923c2.88,6.895 8.585,10.342 17.118,10.342c9.172,0 15.571,-2.316 19.197,-6.948c3.626,-4.633 5.439,-14.382 5.439,-29.249c0,-20.469 -2.346,-33.289 -7.039,-38.46c-4.906,-5.171 -29.969,-20.468 -75.19,-45.893c-37.968,-21.546 -61.112,-41.099 -69.431,-58.659c-8.318,-17.56 -12.478,-38.405 -12.478,-62.537c0,-34.258 4.48,-59.521 13.438,-75.788c8.959,-16.267 24.157,-28.817 45.594,-37.651c21.437,-8.834 46.341,-13.251 74.71,-13.251c28.157,0 52.1,3.609 71.831,10.827c19.731,7.218 34.875,16.752 45.434,28.602c10.559,11.85 16.958,22.839 19.197,32.965c2.24,10.127 3.36,25.963 3.36,47.509l0,24.886Z" style="fill:#424242;fill-rule:nonzero;"/></svg>