<?xml version="1.0" encoding="UTF-8" standalone="no"?><!DOCTYPE svg PUBLIC "-//W3C//DTD SVG 1.1//EN" "http://www.w3.org/Graphics/SVG/1.1/DTD/svg11.dtd"><svg width="100%" height="100%" viewBox="0 0 444 78" version="1.1" xmlns="http://www.w3.org/2000/svg" xmlns:xlink="http://www.w3.org/1999/xlink" xml:space="preserve" style="fill-rule:evenodd;clip-rule:evenodd;stroke-linejoin:round;stroke-miterlimit:1.41421;"><path d="M99.11,77.095c-1.594,0 -2.887,-1.293 -2.887,-2.888l0,-64.567l-10.323,8.469c-1.233,1.011 -3.053,0.831 -4.064,-0.402c-1.011,-1.233 -0.832,-3.052 0.401,-4.064l15.042,-12.338c0.863,-0.708 2.058,-0.855 3.066,-0.378c1.009,0.478 1.653,1.494 1.653,2.61l0,70.67c0,1.595 -1.293,2.888 -2.888,2.888" style="fill:#fff;fill-rule:nonzero;"/><path d="M236.479,1.715c0.524,0.524 0.787,1.244 0.787,2.162l0,45.707c-0.067,5.047 -1.313,9.635 -3.737,13.764c-2.426,4.13 -5.719,7.359 -9.88,9.684c-4.163,2.328 -8.768,3.49 -13.814,3.49c-5.179,0 -9.865,-1.195 -14.059,-3.589c-4.196,-2.391 -7.49,-5.685 -9.882,-9.88c-2.393,-4.195 -3.588,-8.882 -3.588,-14.06c0,-5.112 1.195,-9.765 3.588,-13.961c2.392,-4.193 5.686,-7.487 9.882,-9.88c4.194,-2.392 8.88,-3.589 14.059,-3.589c4.653,0 8.864,1 12.633,2.999c3.77,2 6.735,4.736 8.899,8.209l0,-28.894c0,-0.918 0.277,-1.638 0.835,-2.162c0.556,-0.524 1.262,-0.787 2.113,-0.787c0.918,0 1.638,0.263 2.164,0.787m-15.633,66.401c3.277,-1.933 5.851,-4.571 7.719,-7.915c1.867,-3.342 2.802,-7.078 2.802,-11.208c0,-4.128 -0.935,-7.865 -2.802,-11.208c-1.868,-3.342 -4.442,-5.964 -7.719,-7.866c-3.278,-1.899 -6.947,-2.85 -11.011,-2.85c-4.065,0 -7.735,0.951 -11.011,2.85c-3.279,1.902 -5.868,4.524 -7.767,7.866c-1.902,3.343 -2.853,7.08 -2.853,11.208c0,4.13 0.951,7.866 2.853,11.208c1.899,3.344 4.488,5.982 7.767,7.915c3.276,1.934 6.946,2.9 11.011,2.9c4.064,0 7.733,-0.966 11.011,-2.9" style="fill:#fff;fill-rule:nonzero;"/><path d="M286.163,68.165c3.277,-1.899 5.851,-4.523 7.718,-7.865c1.868,-3.343 2.802,-7.078 2.802,-11.208c0,-4.13 -0.934,-7.865 -2.802,-11.209c-1.867,-3.342 -4.441,-5.98 -7.718,-7.914c-3.279,-1.932 -6.948,-2.901 -11.011,-2.901c-4.066,0 -7.736,0.969 -11.011,2.901c-3.278,1.934 -5.869,4.572 -7.769,7.914c-1.901,3.344 -2.85,7.079 -2.85,11.209c0,4.13 0.949,7.865 2.85,11.208c1.9,3.342 4.491,5.966 7.769,7.865c3.275,1.902 6.945,2.852 11.011,2.852c4.063,0 7.732,-0.95 11.011,-2.852m2.95,-43.014c4.192,2.394 7.487,5.688 9.88,9.881c2.393,4.196 3.589,8.883 3.589,14.06l0,23.891c0,0.853 -0.262,1.557 -0.786,2.115c-0.526,0.556 -1.246,0.835 -2.164,0.835c-0.852,0 -1.557,-0.279 -2.112,-0.835c-0.559,-0.558 -0.837,-1.262 -0.837,-2.115l0,-7.669c-2.163,3.476 -5.129,6.211 -8.898,8.211c-3.768,1.998 -7.981,2.998 -12.633,2.998c-5.179,0 -9.866,-1.196 -14.061,-3.589c-4.194,-2.393 -7.488,-5.687 -9.88,-9.881c-2.393,-4.194 -3.589,-8.849 -3.589,-13.961c0,-5.177 1.196,-9.864 3.589,-14.06c2.392,-4.193 5.686,-7.487 9.88,-9.881c4.195,-2.391 8.882,-3.588 14.061,-3.588c5.112,0 9.765,1.197 13.961,3.588" style="fill:#fff;fill-rule:nonzero;"/><path d="M346.889,25.397c0,0.328 -0.035,0.591 -0.099,0.786c-0.198,0.722 -0.509,1.23 -0.935,1.524c-0.426,0.296 -0.999,0.442 -1.719,0.442c-0.591,0 -1.362,-0.064 -2.312,-0.196c-0.95,-0.131 -1.753,-0.197 -2.409,-0.197c-3.277,0 -6.193,0.688 -8.75,2.065c-2.555,1.377 -4.556,3.279 -5.997,5.703c-1.442,2.425 -2.162,5.146 -2.162,8.159l0,29.889c0,0.853 -0.262,1.558 -0.787,2.114c-0.526,0.557 -1.247,0.836 -2.163,0.836c-0.854,0 -1.558,-0.279 -2.114,-0.836c-0.558,-0.556 -0.835,-1.261 -0.835,-2.114l0,-48.472c0,-0.915 0.277,-1.636 0.835,-2.162c0.556,-0.524 1.26,-0.787 2.114,-0.787c0.916,0 1.637,0.263 2.163,0.787c0.525,0.526 0.787,1.247 0.787,2.162l0,6.687c1.899,-3.013 4.326,-5.373 7.275,-7.078c2.949,-1.704 6.159,-2.558 9.634,-2.558c4.982,0 7.474,1.083 7.474,3.246" style="fill:#fff;fill-rule:nonzero;"/><path d="M389.997,71.359c0.556,0.559 0.835,1.296 0.835,2.213c0,0.853 -0.279,1.558 -0.835,2.115c-0.557,0.556 -1.296,0.835 -2.211,0.835l-2.263,0c-3.605,0 -6.817,-0.82 -9.634,-2.458c-2.819,-1.638 -5.015,-3.883 -6.588,-6.735c-1.572,-2.851 -2.359,-6.079 -2.359,-9.684l0,-30.39l-7.67,0c-0.786,0 -1.425,-0.246 -1.916,-0.738c-0.493,-0.489 -0.738,-1.13 -0.738,-1.917c0,-0.786 0.245,-1.425 0.738,-1.916c0.491,-0.492 1.13,-0.737 1.916,-0.737l7.67,0l0,-17.934c0,-0.917 0.277,-1.655 0.835,-2.211c0.557,-0.557 1.262,-0.836 2.115,-0.836c0.915,0 1.654,0.279 2.212,0.836c0.556,0.556 0.835,1.294 0.835,2.211l0,17.934l12.978,0c0.785,0 1.426,0.245 1.918,0.737c0.49,0.491 0.737,1.13 0.737,1.916c0,0.787 -0.247,1.428 -0.737,1.917c-0.492,0.492 -1.133,0.738 -1.918,0.738l-12.978,0l0,30.39c0,3.801 1.18,6.9 3.54,9.291c2.359,2.394 5.408,3.589 9.143,3.589l2.164,0c0.915,0 1.655,0.279 2.211,0.834" style="fill:#fff;fill-rule:nonzero;"/><path d="M410.835,74.507c-3.606,-1.344 -6.588,-3.391 -8.947,-6.146c-0.46,-0.523 -0.688,-1.114 -0.688,-1.768c0,-0.918 0.426,-1.672 1.278,-2.262c0.394,-0.328 0.949,-0.492 1.672,-0.492c0.916,0 1.67,0.361 2.261,1.082c3.277,3.998 8.553,5.997 15.829,5.997c5.176,0 8.995,-0.917 11.454,-2.753c2.457,-1.833 3.687,-4.193 3.687,-7.078c0,-5.177 -5.014,-8.488 -15.042,-9.93c-6.36,-0.917 -11.16,-2.656 -14.404,-5.211c-3.245,-2.557 -4.868,-5.637 -4.868,-9.242c0,-4.784 1.753,-8.504 5.26,-11.16c3.506,-2.653 8.078,-3.981 13.716,-3.981c8.259,0 14.517,2.95 18.778,8.849c0.394,0.459 0.591,1.016 0.591,1.672c0,0.918 -0.527,1.671 -1.573,2.26c-0.657,0.263 -1.147,0.394 -1.476,0.394c-0.982,0 -1.803,-0.426 -2.457,-1.279c-3.343,-4.26 -8.029,-6.391 -14.059,-6.391c-3.999,0 -7.178,0.87 -9.537,2.607c-2.36,1.736 -3.54,3.882 -3.54,6.44c0,2.621 1.131,4.719 3.392,6.292c2.262,1.572 6.046,2.752 11.356,3.539c6.946,0.982 11.946,2.836 14.993,5.555c3.047,2.72 4.573,6.014 4.573,9.881c0,3.015 -0.969,5.67 -2.901,7.963c-1.934,2.295 -4.508,4.065 -7.719,5.31c-3.212,1.246 -6.719,1.868 -10.519,1.868c-3.803,0 -7.505,-0.672 -11.11,-2.016" style="fill:#fff;fill-rule:nonzero;"/><path d="M142.789,6.51c-12.114,0 -21.969,9.855 -21.969,21.969l0,21.364c0,12.114 9.855,21.969 21.969,21.969c12.114,0 21.969,-9.855 21.969,-21.969l0,-21.364c0,-12.114 -9.855,-21.969 -21.969,-21.969m0,71.078c-15.298,0 -27.744,-12.446 -27.744,-27.745l0,-21.364c0,-15.297 12.446,-27.744 27.744,-27.744c15.298,0 27.744,12.447 27.744,27.744l0,21.364c0,15.299 -12.446,27.745 -27.744,27.745" style="fill:#fff;fill-rule:nonzero;"/><path d="M55.168,9.58c-0.944,-0.959 -2.488,-0.97 -3.447,-0.026c-0.959,0.945 -0.971,2.489 -0.026,3.447c5.072,5.147 7.864,11.962 7.864,19.189c0,11.516 -7.279,21.863 -18.115,25.747c-0.969,0.348 -1.617,1.268 -1.615,2.298l0.001,10.25l-23.253,-15.866l-0.001,0c-7.327,-5.119 -11.701,-13.504 -11.701,-22.429c0,-14.687 11.483,-26.685 26.144,-27.317c1.345,-0.057 2.388,-1.195 2.331,-2.54c-0.059,-1.345 -1.209,-2.396 -2.541,-2.33c-17.276,0.744 -30.809,14.882 -30.809,32.187c0,10.516 5.153,20.394 13.783,26.425c0.005,0.003 0.01,0.006 0.015,0.009c0.003,0.002 0.005,0.004 0.008,0.006l27.087,18.482c0.413,0.282 0.893,0.424 1.374,0.424c0.39,0 0.781,-0.093 1.139,-0.282c0.798,-0.422 1.299,-1.251 1.299,-2.155l0,-13.202c11.87,-4.993 19.729,-16.719 19.729,-29.707c0,-8.516 -3.29,-16.545 -9.266,-22.61" style="fill:#fff;fill-rule:nonzero;"/><path d="M32.282,38.337c-4.224,0 -7.648,-3.423 -7.648,-7.647c0,-4.224 3.424,-7.648 7.648,-7.648c4.223,0 7.648,3.424 7.648,7.648c0,4.224 -3.425,7.647 -7.648,7.647m12.52,-34.294c0,-1.346 -1.091,-2.438 -2.438,-2.438c-1.346,0 -2.437,1.092 -2.437,2.438l0,16.75c-2.118,-1.639 -4.766,-2.626 -7.645,-2.626c-6.905,0 -12.523,5.617 -12.523,12.523c0,6.905 5.618,12.522 12.523,12.522c6.905,0 12.523,-5.617 12.523,-12.522c0,-0.124 -0.003,-26.647 -0.003,-26.647" style="fill:#d65d52;fill-rule:nonzero;"/></svg>